<?xml version="1.0" encoding="UTF-8" standalone="no"?>
<!DOCTYPE svg PUBLIC "-//W3C//DTD SVG 1.1//EN" "http://www.w3.org/Graphics/SVG/1.1/DTD/svg11.dtd">
<svg width="100%" height="100%" viewBox="0 0 32 32" version="1.1" xmlns="http://www.w3.org/2000/svg" xmlns:xlink="http://www.w3.org/1999/xlink" xml:space="preserve" xmlns:serif="http://www.serif.com/" style="fill-rule:evenodd;clip-rule:evenodd;stroke-linejoin:round;stroke-miterlimit:2;">
    <g transform="matrix(0.0208333,0,0,0.0208333,15.6667,15.6667)">
        <g transform="matrix(1,0,0,1,-1005.99,-1008)">
            <path d="M728.353,1245.92L1241.27,372.434L796.716,370.101L764.745,370.101L253.987,1261.57L493.463,1645.94L727.067,1248.11L727.067,1245.92L728.353,1245.92Z" style="fill:rgb(66,66,66);"/>
        </g>
        <g transform="matrix(1,0,0,1,-1005.99,-1008)">
            <path d="M1789.99,1245.92L1286.48,372.434L1280.95,372.434L1047.43,770.119L1312.5,1245.92L1789.99,1245.92Z" style="fill:rgb(66,66,66);"/>
        </g>
        <g transform="matrix(1,0,0,1,-1005.99,-1008)">
            <path d="M1770.97,1280.27L747.87,1280.27L514.383,1677.9L1558.22,1677.9L1770.97,1280.27Z" style="fill:rgb(66,66,66);"/>
        </g>
    </g>
</svg>
